<svg xmlns="http://www.w3.org/2000/svg" width="1600" height="900" viewBox="0 0 1600 900" role="img" aria-label="Multiple agent harnesses converging on the same repository rules">
  <rect width="1600" height="900" fill="#f2eee6"/>
  <text x="800" y="72" text-anchor="middle" font-family="Atkinson Hyperlegible, Helvetica, Arial, sans-serif" font-size="36" font-weight="700" fill="#121820">The agent is replaceable. The quality bar isnt.</text>

  <rect x="80" y="160" width="360" height="80" rx="8" fill="#faf8f4" stroke="#121820" stroke-width="3"/>
  <text x="260" y="210" text-anchor="middle" font-family="Atkinson Hyperlegible, Helvetica, Arial, sans-serif" font-size="28" fill="#121820">Gemini CLI</text>

  <rect x="80" y="280" width="360" height="80" rx="8" fill="#faf8f4" stroke="#121820" stroke-width="3"/>
  <text x="260" y="330" text-anchor="middle" font-family="Atkinson Hyperlegible, Helvetica, Arial, sans-serif" font-size="28" fill="#121820">GitHub Copilot</text>

  <rect x="80" y="400" width="360" height="80" rx="8" fill="#faf8f4" stroke="#121820" stroke-width="3"/>
  <text x="260" y="450" text-anchor="middle" font-family="Atkinson Hyperlegible, Helvetica, Arial, sans-serif" font-size="28" fill="#121820">Cursor</text>

  <rect x="80" y="520" width="360" height="80" rx="8" fill="#faf8f4" stroke="#121820" stroke-width="3"/>
  <text x="260" y="570" text-anchor="middle" font-family="Atkinson Hyperlegible, Helvetica, Arial, sans-serif" font-size="28" fill="#121820">SpecKit / SDD</text>

  <rect x="80" y="640" width="360" height="80" rx="8" fill="#faf8f4" stroke="#121820" stroke-width="3"/>
  <text x="260" y="690" text-anchor="middle" font-family="Atkinson Hyperlegible, Helvetica, Arial, sans-serif" font-size="28" fill="#121820">Native planning</text>

  <path d="M440 200 H700" stroke="#5a6573" stroke-width="3"/>
  <path d="M440 320 H700" stroke="#5a6573" stroke-width="3"/>
  <path d="M440 440 H700" stroke="#5a6573" stroke-width="3"/>
  <path d="M440 560 H700" stroke="#5a6573" stroke-width="3"/>
  <path d="M440 680 H700" stroke="#5a6573" stroke-width="3"/>
  <path d="M700 200 V680" stroke="#5a6573" stroke-width="3"/>
  <path d="M700 440 H820" stroke="#5a6573" stroke-width="4"/><polygon points="832,440 816,432 816,448" fill="#5a6573"/>

  <rect x="840" y="280" width="640" height="320" rx="12" fill="#0c6b52"/>
  <text x="1160" y="380" text-anchor="middle" font-family="Atkinson Hyperlegible, Helvetica, Arial, sans-serif" font-size="34" font-weight="700" fill="#f2eee6">Same repository rules</text>
  <text x="1160" y="440" text-anchor="middle" font-family="Atkinson Hyperlegible, Helvetica, Arial, sans-serif" font-size="26" fill="#c5e4d8">.editorconfig</text>
  <text x="1160" y="490" text-anchor="middle" font-family="Atkinson Hyperlegible, Helvetica, Arial, sans-serif" font-size="26" fill="#c5e4d8">Directory.Build.props / .targets</text>
  <text x="1160" y="540" text-anchor="middle" font-family="Atkinson Hyperlegible, Helvetica, Arial, sans-serif" font-size="26" fill="#c5e4d8">CodeMetricsConfig.txt · Tests</text>
</svg>
